<?xml version="1.0" standalone="no"?>
<!DOCTYPE svg PUBLIC "-//W3C//DTD SVG 20010904//EN"
 "http://www.w3.org/TR/2001/REC-SVG-20010904/DTD/svg10.dtd">
<svg version="1.0" xmlns="http://www.w3.org/2000/svg"
 width="500.000000pt" height="499.000000pt" viewBox="0 0 500.000000 499.000000"
 preserveAspectRatio="xMidYMid meet">

<g transform="translate(0.000000,499.000000) scale(0.100000,-0.100000)"
fill="#000000" stroke="none">
<path d="M584 4591 c-102 -17 -214 -104 -265 -208 l-24 -48 0 -1395 0 -1395
30 -59 c38 -75 105 -142 175 -175 l55 -26 681 -3 c557 -2 684 -5 693 -16 8 -9
11 -87 9 -252 l-3 -239 -135 -5 c-163 -7 -190 -18 -255 -104 -28 -36 -30 -46
-30 -120 1 -66 5 -88 23 -118 29 -46 77 -83 127 -97 40 -11 695 -16 695 -6 0
3 -10 22 -23 43 -30 49 -45 84 -70 162 -19 61 -21 93 -25 552 l-3 488 -798 0
c-792 0 -798 0 -825 21 l-26 20 0 1329 0 1329 22 15 c20 14 222 16 1951 16
l1928 0 24 -25 25 -24 0 -289 0 -289 48 -13 c96 -25 148 -43 191 -66 24 -13
45 -24 47 -24 2 0 4 165 4 368 0 391 -1 396 -52 483 -35 60 -91 109 -164 145
l-59 29 -1965 1 c-1081 1 -1983 -1 -2006 -5z"/>
<path d="M2815 3342 c-104 -36 -179 -105 -226 -208 l-28 -62 -2 -1214 c-1
-1324 -4 -1253 54 -1346 36 -55 109 -119 174 -149 l58 -27 369 -4 c355 -4 369
-3 361 15 -50 119 -49 111 -53 320 l-4 203 -332 2 -331 3 -3 1055 c-1 580 0
1065 3 1078 3 12 20 31 38 42 31 19 54 20 800 20 818 0 810 0 833 -47 5 -10
11 -169 14 -353 l5 -335 100 -6 c58 -3 116 -13 139 -22 21 -10 40 -17 43 -17
2 0 2 179 1 398 l-3 397 -29 60 c-49 98 -133 168 -245 204 -23 8 -292 11 -860
10 -752 0 -830 -2 -876 -17z"/>
<path d="M3851 2127 c-50 -16 -107 -75 -120 -124 -8 -30 -11 -255 -9 -780 l3
-738 22 -35 c12 -19 39 -46 59 -60 l38 -25 418 -3 c396 -2 421 -2 463 17 27
12 55 36 74 62 l31 42 0 761 0 762 -27 42 c-18 27 -45 51 -73 65 -44 22 -54
22 -445 24 -269 1 -411 -2 -434 -10z m745 -214 c20 -7 21 -1208 2 -1215 -10
-4 -623 -3 -650 1 -5 1 -8 273 -8 605 0 474 3 605 13 609 17 7 626 7 643 0z
m-286 -1308 c53 -27 65 -83 29 -129 -15 -19 -30 -26 -55 -26 -49 0 -71 14 -84
54 -14 43 -2 69 43 96 38 24 32 23 67 5z"/>
</g>
</svg>
