<svg width="165" height="49" viewBox="0 0 165 49" fill="none" xmlns="http://www.w3.org/2000/svg">
<path d="M49.2298 24.5C49.2298 29.2467 47.8009 33.8869 45.1236 37.8337C42.4464 41.7805 38.6411 44.8566 34.189 46.6731C29.7369 48.4896 24.8379 48.9649 20.1116 48.0388C15.3852 47.1128 11.0438 44.827 7.63633 41.4706C4.22883 38.1141 1.9083 33.8377 0.968176 29.1822C0.0280504 24.5266 0.510557 19.701 2.35468 15.3156C4.1988 10.9302 7.32171 7.18187 11.3285 4.54472C15.3353 1.90757 20.046 0.5 24.8649 0.5C28.0646 0.5 31.2329 1.12077 34.189 2.32689C37.1451 3.533 39.831 5.30083 42.0935 7.52943C44.356 9.75804 46.1507 12.4038 47.3752 15.3156C48.5996 18.2274 49.2298 21.3483 49.2298 24.5Z" fill="#F7CA11"/>
<path d="M12.9421 27.3353C13.5217 29.3996 15.0935 30.4318 17.6574 30.4321C19.3071 30.4321 20.5557 29.883 21.4031 28.7848L24.8811 30.7612C23.2309 33.1112 20.8008 34.2861 17.591 34.2858C14.8263 34.2858 12.6081 33.4624 10.9363 31.8154C9.3309 30.1332 8.43432 27.9131 8.42812 25.6043C8.42191 23.2955 9.30655 21.0707 10.9029 19.3802C12.5524 17.723 14.6703 16.8943 17.2565 16.8943C18.3907 16.8623 19.5189 17.069 20.5656 17.5007C21.6122 17.9324 22.5534 18.5791 23.326 19.3977C24.9216 21.0703 25.781 23.2964 25.7171 25.5906C25.7135 26.1762 25.6575 26.7604 25.5497 27.3363L12.9421 27.3353ZM12.8742 24.041H21.4031C21.2355 23.0469 20.6918 22.1523 19.8814 21.5373C19.1194 20.991 18.1985 20.7023 17.2561 20.7142C16.2245 20.6744 15.2099 20.9823 14.3799 21.587C13.5993 22.204 13.0658 23.0734 12.8742 24.041Z" fill="#F4F4F4"/>
<path d="M36.5518 34.286C35.3842 34.2986 34.2257 34.083 33.1433 33.6517C32.0609 33.2203 31.0761 32.5817 30.2459 31.7729C29.4158 30.9641 28.7567 30.0012 28.3069 28.9398C27.8571 27.8784 27.6255 26.7397 27.6255 25.5895C27.6255 24.4394 27.8571 23.3007 28.3069 22.2393C28.7567 21.1779 29.4158 20.215 30.2459 19.4062C31.0761 18.5974 32.0609 17.9588 33.1433 17.5274C34.2257 17.0961 35.3842 16.8805 36.5518 16.8931C38.1127 16.8761 39.6493 17.2745 40.9994 18.0464C42.2936 18.7706 43.3498 19.8452 44.0427 21.1429L40.3323 23.2838C40.0016 22.6072 39.4712 22.0446 38.8106 21.6698C38.116 21.2708 37.3241 21.0658 36.5201 21.077C35.9252 21.0593 35.333 21.1627 34.7805 21.3809C34.2281 21.5992 33.7274 21.9274 33.3098 22.3452C32.4922 23.2274 32.039 24.3788 32.039 25.5733C32.039 26.7678 32.4922 27.9191 33.3098 28.8014C33.7274 29.2191 34.2281 29.5474 34.7805 29.7655C35.333 29.9837 35.9252 30.0871 36.5201 30.0692C37.3331 30.0834 38.1352 29.8845 38.8444 29.4929C39.5065 29.1275 40.0378 28.5695 40.3657 27.8953L44.111 30.0037C43.3771 31.2978 42.3027 32.3731 41.0009 33.1166C39.6541 33.8982 38.1162 34.3024 36.5532 34.2856" fill="#F4F4F4"/>
<path d="M60.3632 31.7658C59.1253 32.9746 57.552 33.7954 55.8414 34.1249C54.1308 34.4544 52.3595 34.2777 50.7506 33.6173C49.1418 32.9568 47.7673 31.8421 46.8006 30.4135C45.8338 28.9849 45.3179 27.3064 45.3179 25.5896C45.3179 23.8727 45.8338 22.1942 46.8006 20.7656C47.7673 19.337 49.1418 18.2223 50.7506 17.5618C52.3595 16.9014 54.1308 16.7248 55.8414 17.0542C57.552 17.3837 59.1253 18.2045 60.3632 19.4133C62.013 21.0582 62.9381 23.2773 62.9381 25.5896C62.9381 27.9018 62.013 30.1209 60.3632 31.7658ZM50.849 28.8504C51.2681 29.272 51.771 29.6037 52.3263 29.8247C52.8817 30.0458 53.4774 30.1514 54.0761 30.135C54.6772 30.1503 55.2752 30.0443 55.8331 29.8234C56.391 29.6024 56.8971 29.2713 57.3202 28.8504C58.1583 27.9652 58.6244 26.7998 58.6244 25.5894C58.6244 24.3789 58.1583 23.2136 57.3202 22.3284C56.8971 21.9074 56.391 21.5763 55.8331 21.3554C55.2752 21.1345 54.6772 21.0284 54.0761 21.0438C53.4774 21.0274 52.8817 21.133 52.3263 21.354C51.771 21.5751 51.2681 21.9068 50.849 22.3284C50.0209 23.2185 49.5615 24.382 49.5615 25.5894C49.5615 26.7967 50.0209 27.9603 50.849 28.8504Z" fill="#271C47"/>
<path d="M75.2765 16.8933C76.1182 16.8684 76.9559 17.0166 77.7361 17.3286C78.5164 17.6405 79.222 18.1092 79.808 18.7048C81.0002 19.913 81.5964 21.5819 81.5966 23.7115V33.824H77.283V24.2395C77.283 23.1425 76.9819 22.3022 76.3798 21.7187C76.0583 21.4218 75.6795 21.1915 75.266 21.0416C74.8524 20.8916 74.4125 20.8251 73.9724 20.8458C73.4788 20.8234 72.986 20.9026 72.5253 21.0785C72.0646 21.2543 71.6462 21.5229 71.2969 21.8671C70.6282 22.548 70.2939 23.5692 70.2939 24.9307V33.8237H65.9799V17.3537H70.2939V19.1982C71.3413 17.6611 73.0021 16.8925 75.2765 16.8923" fill="#271C47"/>
<path d="M95.9774 17.3545H100.726L94.3722 33.8245H89.4565L83.1022 17.3545H87.8509L91.903 28.8811L95.9774 17.3545Z" fill="#271C47"/>
<path d="M105.775 27.3353C106.354 29.3996 107.926 30.4318 110.49 30.4321C112.14 30.4321 113.389 29.883 114.236 28.7848L117.714 30.7612C116.064 33.1112 113.634 34.2861 110.424 34.2858C107.659 34.2858 105.441 33.4624 103.769 31.8154C102.164 30.1332 101.267 27.9131 101.261 25.6043C101.255 23.2955 102.139 21.0707 103.736 19.3802C105.385 17.723 107.503 16.8943 110.09 16.8943C111.224 16.8623 112.352 17.069 113.398 17.5007C114.445 17.9324 115.386 18.5791 116.158 19.3977C117.754 21.0701 118.614 23.2963 118.55 25.5906C118.546 26.1762 118.49 26.7604 118.383 27.3363L105.775 27.3353ZM105.709 24.041H114.235C114.067 23.0469 113.523 22.1523 112.713 21.5373C111.951 20.9911 111.03 20.7023 110.088 20.7142C109.057 20.6743 108.042 20.9822 107.212 21.587C106.431 22.2039 105.898 23.0734 105.707 24.041" fill="#271C47"/>
<path d="M125.874 20.1867C126.229 19.1876 126.935 18.3464 127.864 17.815C128.805 17.284 129.872 17.011 130.956 17.0244V21.7678C129.722 21.5963 128.466 21.8777 127.428 22.5584C126.391 23.2393 125.873 24.3703 125.873 25.9514V33.8242H121.56V17.3542H125.874V20.1867Z" fill="#271C47"/>
<path d="M136.909 22.0323C136.909 22.4719 137.204 22.8286 137.795 23.1027C138.488 23.4125 139.211 23.6552 139.952 23.8274C140.814 24.0412 141.663 24.3052 142.494 24.618C143.349 24.9429 144.096 25.4961 144.65 26.2156C145.261 27.0226 145.574 28.0107 145.537 29.0165C145.537 30.7078 144.896 32.009 143.614 32.92C142.332 33.831 140.733 34.2862 138.816 34.2855C135.382 34.2855 133.041 32.9789 131.793 30.3659L135.538 28.2907C136.028 29.7183 137.121 30.4319 138.816 30.4317C140.354 30.4317 141.123 29.9595 141.123 29.0151C141.123 28.5763 140.828 28.2195 140.237 27.9448C139.542 27.6343 138.82 27.3862 138.08 27.2036C137.217 26.979 136.369 26.7042 135.539 26.3805C134.694 26.0526 133.95 25.5131 133.382 24.8154C132.773 24.0517 132.46 23.1006 132.495 22.1307C132.465 21.394 132.614 20.6609 132.932 19.9931C133.249 19.3252 133.724 18.7423 134.318 18.2934C135.622 17.3313 137.221 16.8372 138.849 16.8929C140.145 16.8774 141.423 17.1892 142.562 17.7987C143.672 18.3988 144.587 19.2951 145.203 20.3847L141.524 22.3607C141.309 21.8428 140.936 21.4032 140.457 21.1023C139.978 20.8014 139.416 20.6539 138.848 20.6802C138.36 20.6622 137.877 20.7884 137.462 21.0425C137.29 21.1452 137.149 21.2905 137.052 21.4639C136.955 21.6373 136.906 21.8327 136.91 22.0306" fill="#271C47"/>
<path d="M151.724 27.3353C152.303 29.3996 153.875 30.4318 156.439 30.4321C158.089 30.4321 159.338 29.883 160.184 28.7848L163.662 30.7612C162.013 33.1112 159.583 34.2861 156.372 34.2858C153.608 34.2858 151.389 33.4624 149.718 31.8154C148.112 30.1335 147.215 27.9135 147.208 25.6047C147.202 23.2959 148.086 21.071 149.682 19.3802C151.332 17.723 153.45 16.8943 156.036 16.8943C157.17 16.8623 158.298 17.069 159.345 17.5007C160.392 17.9324 161.333 18.5791 162.105 19.3977C163.701 21.0702 164.561 23.2963 164.497 25.5906C164.493 26.1762 164.437 26.7604 164.329 27.3363L151.724 27.3353ZM151.657 24.041H160.184C160.017 23.0469 159.473 22.1523 158.663 21.5373C157.901 20.9911 156.98 20.7023 156.038 20.7142C155.006 20.6744 153.992 20.9823 153.162 21.587C152.381 22.2041 151.848 23.0735 151.657 24.041Z" fill="#271C47"/>
</svg>
